# xmcd
#
# Track frame offsets:
#	183
#	18130
#	58913
#	66293
#	98015
#	114453
#	152805
#	171143
#	179080
#	203090
#	254703
#	284208
#	321933
#
# Disc length: 4497 seconds
#
# Revision: 0
# Processed by: cddbd v1.4PL0 Copyright (c) Steve Scherf et al.
# Submitted via: dBpowerAMP V4.0
#
DISCID=c6118f0d
DTITLE=Jimi Hendrix - Ultra Rare Trax
DYEAR=1900
DGENRE=Blues
TTITLE0=Midnight Lightning
TTITLE1=Voovoo Chile
TTITLE2=Rainy Day Tryout 
TTITLE3=Red House
TTITLE4=Bleeding Heart
TTITLE5=Blue Window Jam
TTITLE6=Villanova Junction Blues
TTITLE7=Funky Blues Jam
TTITLE8=Once I had A Woman
TTITLE9=Police Blues
TTITLE10=Country Blues
TTITLE11=Freedom Jam
TTITLE12=Acoustic Medley
EXTD=
EXTT0=
EXTT1=
EXTT2=
EXTT3=
EXTT4=
EXTT5=
EXTT6=
EXTT7=
EXTT8=
EXTT9=
EXTT10=
EXTT11=
EXTT12=
PLAYORDER=
